<svg width="1440" height="768" xmlns="http://www.w3.org/2000/svg" viewBox="0 0 1440 768">
  <defs>
    <linearGradient id="bgGradient" x1="0" y1="0" x2="0" y2="1">
      <stop offset="0%" stop-color="#6fb6e8"/>
      <stop offset="100%" stop-color="#b0d9f7"/>
    </linearGradient>
  </defs>
  <rect width="100%" height="100%" fill="url(#bgGradient)" />

  <path d="M0,300 C300,200 600,400 900,300 C1200,200 1440,400 1440,400 L1440,768 L0,768 Z" fill="#5CA2D1" fill-opacity="0.4"/>
  <path d="M0,400 C400,300 700,500 1000,400 C1300,300 1440,500 1440,500 L1440,768 L0,768 Z" fill="#70b4e5" fill-opacity="0.3"/>
  <path d="M0,500 C400,400 800,600 1200,500 C1400,450 1440,600 1440,600 L1440,768 L0,768 Z" fill="#5fa8dd" fill-opacity="0.3"/>
  <path d="M0,600 C500,500 900,700 1440,600 L1440,768 L0,768 Z" fill="#4f9ed5" fill-opacity="0.2"/>
  <path d="M0,200 C300,100 700,300 1100,200 C1300,150 1440,300 1440,300 L1440,768 L0,768 Z" fill="#a5d1f3" fill-opacity="0.2"/>
</svg>
